<svg width="120" height="120" viewBox="0 0 120 120" fill="none" xmlns="http://www.w3.org/2000/svg">
<path d="M60.005 120C60.0018 120 59.9987 119.999 59.9964 119.997L0.780362 64.6011C0.358005 64.206 0.357888 63.5361 0.780105 63.1408L13.4333 51.2956C13.8177 50.9358 14.4153 50.9357 14.7999 51.2954L59.3568 92.9775C59.7412 93.3372 60.3386 93.3372 60.7231 92.9775L105.278 51.2972C105.663 50.9367 106.262 50.9377 106.647 51.2994L119.224 63.1408C119.644 63.5364 119.643 64.2047 119.222 64.5991L60.0136 119.997C60.0113 119.999 60.0082 120 60.005 120ZM60.01 69.3346C60.0044 69.3398 59.9956 69.3398 59.99 69.3346L0.780512 13.936C0.35811 13.5408 0.358139 12.8707 0.780573 12.4755L13.4333 0.639079C13.8178 0.279442 14.4152 0.279443 14.7996 0.63908L59.3568 42.3215C59.7412 42.6811 60.3386 42.6811 60.7231 42.3215L105.278 0.640897C105.664 0.280515 106.262 0.281361 106.647 0.642833L119.224 12.4754C119.644 12.871 119.643 13.5395 119.222 13.9339L60.01 69.3346Z" fill="#1DA1F2"/>
</svg>
