<svg width="181" height="143" viewBox="0 0 181 143" fill="none" xmlns="http://www.w3.org/2000/svg">
<path d="M178.875 75.4844C179.028 71.7219 179.312 67.9813 179.29 64.2188C179.268 60.6313 179.203 56.6938 177.759 53.3469C177.278 52.2094 176.578 51.1375 175.484 50.4813C174.893 50.1094 174.347 51.05 174.937 51.4219C176.031 52.0782 176.643 53.3032 177.037 54.4844C177.584 56.125 177.847 57.8532 178 59.5594C178.35 63.4313 178.197 67.3469 178 71.2406C177.803 75.1125 177.693 78.9188 177.89 82.7907C178.153 88.5438 178.722 94.5813 177.343 100.247C176.95 101.888 176.293 103.484 175.112 104.731C173.953 105.913 172.465 106.7 170.978 107.422C166.056 109.828 161.003 111.928 155.797 113.7C144.465 117.528 132.74 119.978 121.168 122.909C115.525 124.331 109.75 125.753 104.303 127.875C99.0309 129.931 94.0653 132.731 88.7278 134.613C86.1028 135.553 83.3903 136.275 80.6122 136.428C78.3809 136.559 75.909 136.428 73.809 135.575C72.2778 134.963 71.2059 133.759 70.1997 132.513C68.8434 130.828 67.509 129.144 66.109 127.503C66.3497 124.725 66.6122 121.969 66.7872 119.191C67.2684 111.797 67.5309 104.053 65.5184 96.8344C64.6434 93.7063 63.2653 90.7094 61.1872 88.1719C60.0715 86.8157 58.759 85.7219 57.359 84.6719C55.2809 83.1188 53.2465 81.5438 51.234 79.925C46.684 76.25 42.3965 72.3344 38.3715 68.1344C38.4153 67.7188 38.4372 67.325 38.5028 66.9094C38.6997 65.3563 38.9184 63.5844 39.8809 62.2938C40.6684 61.2438 41.9153 60.675 43.0965 60.1938C45.1747 59.3188 47.2747 58.5094 49.3528 57.5688C52.1747 56.3 54.9528 54.9657 57.7747 53.7407C60.7497 52.45 63.7903 51.4 66.8528 50.35C72.6934 48.3594 78.5778 46.5219 84.3528 44.3344C87.1965 43.2625 90.0184 42.0813 92.7747 40.8125C93.2778 40.5719 93.0153 39.8063 92.4903 39.8063C84.834 39.8282 77.2434 41.1844 69.609 41.5782C65.7809 41.775 61.909 41.7532 58.1247 41.1407C56.7247 40.9219 55.3247 40.6157 53.9903 40.1563C53.2247 39.8938 52.3715 39.5657 51.8028 38.9969C49.7465 36.9407 55.959 34.6219 57.0965 34.2063C60.859 32.8281 65.2778 31.7344 69.3028 32.2594C72.1903 32.6313 74.9903 33.5063 77.7903 34.3156C80.0434 34.9719 82.3622 35.6282 84.7247 35.5844C90.8715 35.475 94.7434 29.9625 98.5278 25.8719C103.187 20.8188 107.934 15.8094 113.315 11.5C113.556 11.3032 113.818 11.1063 114.081 10.9094C114.365 10.975 114.628 11.0625 114.912 11.15C118.193 12.2875 121.168 14.2125 123.99 16.2032C126.768 18.1719 129.415 20.3375 132.106 22.4157C133.593 23.5532 135.081 24.7125 136.59 25.8282C136.481 25.8938 136.393 25.9594 136.284 26.0032C134.359 27.1625 132.368 28.2563 130.29 29.0875C127.031 30.4 123.553 31.1 120.097 31.625C113.228 32.6969 106.009 33.2438 99.7965 36.6782C97.1934 38.1219 94.3715 40.6375 96.4059 43.7219C97.2809 45.0781 98.6153 46.1063 99.9059 47.025C101.547 48.2063 103.275 49.2782 104.981 50.35C106.687 51.4438 108.415 52.5375 109.99 53.85C111.193 54.8563 112.462 56.0594 113.009 57.5688C114.037 60.3907 112.265 63.2563 110.472 65.3125C107.715 68.5063 104.193 71.0219 100.65 73.2969C98.2434 74.8282 95.7715 76.2719 93.234 77.65C86.1028 79.925 78.9934 82.6157 72.6715 86.6188C72.1684 86.9469 72.4747 87.8 73.0872 87.6032C76.3465 86.5969 79.5403 85.2625 82.6684 83.9063C86.3215 82.3094 89.909 80.6031 93.4309 78.7219C93.6497 78.6563 93.8903 78.5688 94.109 78.5032C101.525 76.1625 109.072 74.2813 116.597 72.3125C120.6 71.2625 124.559 70.125 128.431 68.6156C132.347 67.0844 136.131 65.2688 139.893 63.4094C143.722 61.5063 147.506 59.5594 151.378 57.7657C153.937 56.5844 156.737 55.95 159.472 55.2938C162.906 54.4844 166.384 53.7844 169.731 52.6688C172.4 51.7938 175.353 50.6344 177.19 48.3813C177.453 48.0532 177.365 47.6157 176.95 47.4844C162.862 42.9563 150.306 34.6875 138.515 25.8938C141.425 23.9907 144.137 21.7594 146.303 19.1125C149.256 15.4813 150.853 10.7344 147.922 6.57815C144.99 2.40003 139.543 1.21878 134.709 1.30628C129.853 1.39378 124.756 2.55315 120.578 5.09065C118.237 6.51253 116.006 8.04378 113.862 9.70627C112.593 9.40003 111.281 9.22503 109.947 9.26877C106.556 9.4219 103.231 10.3625 99.9934 11.2813C96.6247 12.2438 93.1903 12.9657 89.8215 13.8844C85.9715 14.9563 82.209 16.3125 78.5122 17.8C71.0747 20.775 63.8122 24.2313 56.1997 26.7907C50.4903 28.6938 44.5403 29.5907 38.6559 30.8375C32.859 32.0625 26.8215 33.5063 21.7684 36.7C19.1653 38.3407 17.1309 40.375 15.534 42.6938C14.1559 41.6438 12.734 40.6813 11.2028 39.85C10.2622 39.3469 9.29967 38.8875 8.3153 38.4719C8.03092 38.3406 7.74655 38.6031 7.63718 38.8438C2.78093 50.7219 7.83405 63.5407 7.46217 75.7907C7.4403 76.3813 8.42467 76.5344 8.53405 75.9438C9.73717 69.5344 10.0434 62.9938 11.3341 56.6063C12.1872 52.3844 13.4778 48.0094 15.7747 44.2906C20.434 48.0969 24.2622 53.0188 27.959 57.6563C30.934 61.3969 33.9747 65.0938 37.2997 68.5719C36.8403 73.6907 37.1028 78.8969 37.409 84.0157C37.584 86.925 37.7809 89.8344 37.9559 92.7438C38.109 95.1938 38.0653 97.6438 38.8309 100.006C40.2309 104.294 43.4903 107.575 46.8372 110.441C48.6965 112.016 50.5997 113.525 52.459 115.1C54.6028 116.916 56.5497 118.884 58.5184 120.875C60.7497 123.128 62.9372 125.447 65.0372 127.831C64.7309 131.484 64.4684 135.138 64.4465 138.791C62.0403 134.678 58.7372 131.091 55.2809 127.831C50.9934 123.806 46.3559 120.175 41.8934 116.347C39.7715 114.531 37.6934 112.694 35.7247 110.725C33.4934 108.494 31.4372 106.088 29.2059 103.856C26.734 101.384 24.1747 98.9782 21.7247 96.4844C19.384 94.1219 17.2184 91.6063 15.0528 89.0907C13.4341 87.2313 11.6841 85.2844 9.3653 84.3C6.84968 83.2281 4.07155 83.6 1.51217 84.3438C0.834049 84.5407 1.11842 85.5907 1.79655 85.3938C4.09342 84.7375 6.60905 84.3219 8.90592 85.2844C10.9622 86.1375 12.5153 87.8657 13.9591 89.4844C16.0372 91.8688 18.0715 94.2969 20.2809 96.5719C22.6434 99 25.1153 101.341 27.5434 103.725C29.7965 105.956 31.9184 108.319 34.1059 110.616C35.9434 112.541 37.9122 114.334 39.9247 116.084C44.2122 119.825 48.7184 123.325 52.9403 127.153C57.4465 131.222 61.7997 135.728 64.5122 141.219C64.7528 141.7 65.5403 141.459 65.5184 140.956C65.4309 136.975 65.6934 133.016 66.0215 129.034C67.3778 130.675 68.6466 132.359 70.0247 133.956C71.0747 135.181 72.2778 136.166 73.809 136.713C75.9528 137.478 78.4247 137.631 80.6778 137.5C86.3872 137.172 91.7247 134.744 96.8434 132.381C99.5122 131.134 102.181 129.866 104.937 128.816C107.715 127.744 110.625 126.913 113.49 126.103C125.39 122.713 137.553 120.35 149.431 116.872C155.272 115.166 161.068 113.175 166.625 110.681C168.703 109.741 170.803 108.822 172.815 107.75C174.215 106.984 175.572 106.088 176.556 104.819C177.672 103.397 178.24 101.647 178.612 99.9188C179.203 97.1407 179.356 94.275 179.356 91.4532C179.268 86.0938 178.634 80.8 178.875 75.4844ZM79.6278 84.0375C81.509 83.1406 83.4122 82.3094 85.359 81.5657C83.4559 82.4188 81.5528 83.25 79.6278 84.0375ZM171.24 46.6313C172.728 47.2219 174.237 47.7688 175.768 48.2719C174.15 49.8688 171.897 50.7875 169.797 51.5094C166.822 52.5375 163.737 53.2156 160.697 53.9156C157.853 54.5719 154.965 55.1844 152.231 56.2344C148.578 57.6344 145.1 59.5813 141.622 61.3313C137.859 63.2125 134.075 65.1157 130.181 66.7563C126.265 68.3969 122.284 69.7094 118.193 70.8031C111.434 72.6188 104.631 74.3031 97.8934 76.2719C101.24 74.325 104.478 72.1813 107.453 69.7094C110.1 67.5219 112.943 64.8094 113.993 61.4407C114.978 58.2907 113.49 55.6 111.15 53.5219C108.043 50.7657 104.281 48.8625 100.912 46.4781C98.9215 45.0782 95.159 42.4313 97.4778 39.7407C99.2059 37.7063 102.181 36.5906 104.631 35.7594C108.153 34.5563 111.828 33.9438 115.503 33.4188C121.912 32.4782 128.234 31.5813 134.031 28.5407C135.212 27.9282 136.372 27.25 137.531 26.55C147.965 34.4032 159.012 41.7532 171.24 46.6313ZM121.868 5.55003C123.859 4.4344 126.068 3.71253 128.278 3.2094C133.09 2.09378 138.822 1.76565 143.35 4.10628C145.428 5.17815 147.222 6.95003 148.009 9.20315C148.753 11.3469 148.337 13.6 147.309 15.5907C145.231 19.6594 141.337 22.7438 137.509 25.2157C136.94 24.7782 136.372 24.3625 135.803 23.925C130.225 19.7031 124.887 14.8469 118.631 11.6094C117.472 11.0188 116.29 10.4938 115.087 10.1C117.231 8.41565 119.506 6.86253 121.868 5.55003ZM8.24967 69.8844C7.4403 59.7782 4.6403 49.4532 8.35905 39.7407C10.6997 40.7469 12.8434 42.0813 14.8341 43.6125C10.0872 51.1375 9.3653 61.2219 8.24967 69.8844ZM30.234 58.925C25.9247 53.5657 21.659 47.7688 16.2559 43.3938C17.1965 42.0156 18.2684 40.7469 19.5372 39.6313C23.934 35.7594 29.884 33.9875 35.4622 32.6532C41.2153 31.275 47.0778 30.4875 52.7872 28.9563C60.0059 27.0313 66.8747 23.8375 73.7215 20.9282C77.4184 19.375 81.1153 17.8438 84.8997 16.5313C88.4434 15.3063 92.0309 14.475 95.6622 13.5782C101.087 12.2219 107.015 9.61878 112.681 10.5813C109.575 13.0532 106.665 15.7438 103.865 18.5657C101.35 21.125 98.8997 23.75 96.4715 26.3969C94.1965 28.8688 91.9872 31.7344 88.9684 33.3531C84.2215 35.8907 78.9497 33.4188 74.2247 32.1719C71.8184 31.5375 69.3465 30.9688 66.8528 31.0563C64.6872 31.1219 62.4997 31.4938 60.3997 32.0188C58.2997 32.5438 56.2215 33.2219 54.2528 34.1625C52.9403 34.7969 51.409 35.6282 50.6215 36.8969C48.3684 40.55 55.8059 41.8188 57.7965 42.1469C65.5403 43.4157 73.4372 42.3875 81.159 41.6C84.0247 41.3157 86.8903 41.0532 89.7559 40.9219C84.5497 43.175 79.2122 45.0344 73.8309 46.8282C67.7497 48.8625 61.6465 50.7875 55.784 53.3907C52.809 54.7032 49.8778 56.125 46.9028 57.4157C45.109 58.1813 43.2715 58.8157 41.5215 59.6688C40.3622 60.2375 39.3122 60.9813 38.634 62.0969C37.759 63.5625 37.5403 65.3563 37.3434 67.0188C37.3434 67.0406 37.3434 67.0625 37.3434 67.0844C34.8715 64.4594 32.509 61.7469 30.234 58.925ZM52.8528 114.072C49.3965 111.163 45.6122 108.472 42.7247 104.928C41.3247 103.222 40.209 101.275 39.6184 99.1532C38.9403 96.7688 39.0278 94.2094 38.8747 91.7375C38.5247 86.0938 38.0653 80.4282 38.0434 74.7844C38.0434 73.0563 38.0872 71.3282 38.1965 69.6219C41.2372 72.75 44.4528 75.7032 47.7997 78.5032C49.6372 80.0344 51.4965 81.5219 53.3778 82.9875C55.1278 84.3438 57.0309 85.5907 58.6715 87.1C61.0559 89.2875 62.7403 92.1313 63.834 95.1719C66.284 102.041 66.1965 109.653 65.8247 116.828C65.6715 120 65.3653 123.172 65.1028 126.344C61.2747 122.034 57.2497 117.769 52.8528 114.072Z" fill="#1DA1F2" stroke="#1DA1F2" stroke-width="2" stroke-miterlimit="10"/>
</svg>
