<svg width="28" height="28" viewBox="0 0 28 28" fill="none" xmlns="http://www.w3.org/2000/svg">
<path d="M27.3076 8.50682C27.2451 7.08992 27.016 6.11581 26.6877 5.27173C26.3491 4.37576 25.8282 3.57361 25.1457 2.90677C24.4788 2.22955 23.6714 1.70333 22.7858 1.37001C21.9369 1.04178 20.9678 0.812651 19.5509 0.750179C18.1235 0.682417 17.6703 0.666748 14.0498 0.666748C10.4293 0.666748 9.97612 0.682417 8.55393 0.744888C7.13703 0.80736 6.16292 1.03669 5.31905 1.36472C4.42288 1.70333 3.62072 2.22426 2.95388 2.90677C2.27667 3.57361 1.75065 4.38106 1.41713 5.26664C1.0889 6.11581 0.859769 7.08463 0.797298 8.50153C0.729536 9.92901 0.713867 10.3822 0.713867 14.0027C0.713867 17.6232 0.729536 18.0764 0.792007 19.4985C0.854479 20.9155 1.08381 21.8896 1.41204 22.7336C1.75065 23.6296 2.27667 24.4318 2.95388 25.0986C3.62072 25.7758 4.42817 26.302 5.31376 26.6354C6.16292 26.9636 7.13174 27.1927 8.54884 27.2552C9.97083 27.3179 10.4242 27.3333 14.0447 27.3333C17.6652 27.3333 18.1184 27.3179 19.5406 27.2552C20.9575 27.1927 21.9316 26.9636 22.7754 26.6354C24.5676 25.9425 25.9845 24.5256 26.6774 22.7336C27.0054 21.8845 27.2347 20.9155 27.2972 19.4985C27.3597 18.0764 27.3753 17.6232 27.3753 14.0027C27.3753 10.3822 27.37 9.92901 27.3076 8.50682ZM24.9062 19.3944C24.8488 20.6967 24.63 21.4 24.4477 21.8688C23.9996 23.0305 23.0776 23.9525 21.9159 24.4006C21.4471 24.583 20.7387 24.8017 19.4415 24.8589C18.0349 24.9216 17.6131 24.937 14.0551 24.937C10.4971 24.937 10.0699 24.9216 8.66849 24.8589C7.36616 24.8017 6.6629 24.583 6.19406 24.4006C5.61594 24.187 5.08972 23.8484 4.66259 23.4056C4.2198 22.9731 3.88119 22.4522 3.66752 21.8741C3.4852 21.4053 3.26645 20.6967 3.20926 19.3997C3.14659 17.9931 3.13112 17.5711 3.13112 14.0131C3.13112 10.455 3.14659 10.0279 3.20926 8.62668C3.26645 7.32434 3.4852 6.62108 3.66752 6.15223C3.88119 5.57392 4.2198 5.04789 4.66788 4.62056C5.10009 4.17777 5.62103 3.83916 6.19935 3.6257C6.66819 3.44337 7.37674 3.22462 8.67378 3.16724C10.0803 3.10476 10.5023 3.0891 14.0602 3.0891C17.6235 3.0891 18.0453 3.10476 19.4467 3.16724C20.7491 3.22462 21.4523 3.44337 21.9212 3.6257C22.4993 3.83916 23.0255 4.17777 23.4527 4.62056C23.8954 5.05298 24.2341 5.57392 24.4477 6.15223C24.63 6.62108 24.8488 7.32943 24.9062 8.62668C24.9687 10.0332 24.9843 10.455 24.9843 14.0131C24.9843 17.5711 24.9687 17.9878 24.9062 19.3944Z" fill="white"/>
<path d="M14.0498 7.15239C10.2679 7.15239 7.19949 10.2206 7.19949 14.0027C7.19949 17.7848 10.2679 20.853 14.0498 20.853C17.8319 20.853 20.9001 17.7848 20.9001 14.0027C20.9001 10.2206 17.8319 7.15239 14.0498 7.15239ZM14.0498 18.4463C11.5963 18.4463 9.60617 16.4564 9.60617 14.0027C9.60617 11.549 11.5963 9.55907 14.0498 9.55907C16.5035 9.55907 18.4934 11.549 18.4934 14.0027C18.4934 16.4564 16.5035 18.4463 14.0498 18.4463Z" fill="white"/>
<path d="M22.7704 6.88155C22.7704 7.7647 22.0543 8.48078 21.171 8.48078C20.2878 8.48078 19.5717 7.7647 19.5717 6.88155C19.5717 5.99819 20.2878 5.28231 21.171 5.28231C22.0543 5.28231 22.7704 5.99819 22.7704 6.88155Z" fill="white"/>
</svg>
