<svg width="50" height="35" viewBox="0 0 50 35" fill="none" xmlns="http://www.w3.org/2000/svg">
<path d="M41.6544 18.2467C41.625 18.2467 41.581 18.2467 41.5369 18.2467H41.5222C41.4928 18.2467 41.4781 18.2467 41.4487 18.2615C41.4193 18.2615 41.4046 18.2763 41.3753 18.2763C41.3606 18.2763 41.3312 18.2911 41.3165 18.2911C41.2871 18.3059 41.2577 18.3059 41.243 18.3207C41.2283 18.3354 41.2136 18.3354 41.1989 18.3502C41.1696 18.365 41.1402 18.3798 41.1255 18.4094C41.1108 18.4242 41.1108 18.4242 41.0961 18.4389C41.0667 18.4685 41.052 18.4833 41.0226 18.5129C41.0079 18.5277 41.0079 18.5277 41.0079 18.5425C40.9932 18.572 40.9639 18.6016 40.9492 18.6312C40.9492 18.646 40.9345 18.646 40.9345 18.6607C40.9198 18.6903 40.9051 18.7347 40.8904 18.7643V18.779C40.8757 18.8234 40.8757 18.8678 40.861 18.9121C40.4496 23.7326 37.9371 28.0207 33.97 30.7562C29.6797 28.627 25.4334 26.0245 25.3894 25.9949C24.9045 25.6992 13.9436 19.0008 9.09492 18.2911C9.08023 18.0397 9.08022 17.7736 9.08022 17.5074C9.08022 8.66498 16.221 1.47866 25.0073 1.47866C29.3565 1.47866 33.3823 3.19391 36.409 6.3139V10.1584C36.409 10.5725 36.7323 10.8978 37.1437 10.8978C37.5551 10.8978 37.8783 10.5725 37.8783 10.1584V3.14955C37.8783 2.73553 37.5551 2.41022 37.1437 2.41022C36.7323 2.41022 36.409 2.73553 36.409 3.14955V4.28813C33.2648 1.5526 29.1948 0 25.0073 0C15.4129 0 7.61093 7.85171 7.61093 17.5074C7.61093 17.7588 7.61094 18.0101 7.62563 18.2615C3.36468 18.6312 0 22.2391 0 26.616C0 31.2442 3.7467 35 8.33089 35C9.85895 35 12.3421 34.1572 15.9271 32.4271C18.66 34.1128 21.7749 35 24.9927 35C28.2104 35 31.34 34.1128 34.0582 32.4271C37.6433 34.1572 40.1264 35 41.6544 35C46.2533 35 50 31.2294 50 26.616C50 22.0025 46.2533 18.2467 41.6544 18.2467ZM1.46929 26.6308C1.46929 23.0228 4.23156 20.0507 7.74317 19.7402C8.33089 24.4423 10.7552 28.6269 14.5166 31.4808C10.9168 33.1664 9.16838 33.5361 8.33089 33.5361C4.55481 33.5509 1.46929 30.4457 1.46929 26.6308ZM16.3679 30.9928C12.4449 28.4495 9.88833 24.4128 9.22715 19.8289C13.1061 20.583 21.481 25.3443 24.6106 27.2666C24.6547 27.2962 28.4161 29.6029 32.4714 31.673C30.1793 32.9003 27.6227 33.5509 24.9927 33.5509C21.9218 33.5509 18.9392 32.6637 16.3679 30.9928ZM41.6544 33.5509C40.8169 33.5509 39.0832 33.1812 35.4687 31.4956C39.2301 28.6417 41.6544 24.4571 42.2421 19.755C45.7537 20.0507 48.516 23.0228 48.516 26.6455C48.5307 30.4457 45.4452 33.5509 41.6544 33.5509Z" fill="#1A7CFE"/>
</svg>
