<svg width="162" height="38" viewBox="0 0 162 38" fill="none" xmlns="http://www.w3.org/2000/svg">
<path d="M140.989 37.9999C129.852 37.9999 120.753 29.4566 120.753 18.9999C120.753 8.5433 129.852 0 140.989 0C152.126 0 161.225 8.5433 161.225 18.9999C161.225 29.4566 152.126 37.9999 140.989 37.9999ZM140.989 4.44964C132.459 4.44964 125.492 10.9906 125.492 18.9999C125.492 27.0093 132.459 33.5503 140.989 33.5503C149.52 33.5503 156.486 27.0093 156.486 18.9999C156.486 10.9461 149.52 4.44964 140.989 4.44964Z" fill="#fff"/>
<path d="M20.2362 37.9999C9.09917 37.9999 0 29.4566 0 18.9999C0 8.5433 9.09917 0 20.2362 0C24.1697 0 28.0084 1.06792 31.2784 3.07026C32.3684 3.7377 32.7001 5.11707 31.9892 6.14049C31.2784 7.16391 29.8092 7.47538 28.7192 6.80794C26.2075 5.25056 23.2692 4.44964 20.2835 4.44964C11.7531 4.44964 4.78653 10.9906 4.78653 18.9999C4.78653 27.0093 11.7531 33.5503 20.2835 33.5503C23.3166 33.5503 26.2075 32.7493 28.7192 31.1919C29.8092 30.5245 31.2784 30.7915 31.9892 31.8149C32.7001 32.8383 32.4158 34.2177 31.3258 34.8851C28.0084 36.932 24.2171 37.9999 20.2362 37.9999Z" fill="#fff"/>
<path d="M45.8276 37.9999C44.5006 37.9999 43.458 37.021 43.458 35.7751V2.22482C43.458 0.97892 44.5006 0 45.8276 0C47.1545 0 48.1972 0.97892 48.1972 2.22482V35.7751C48.1972 36.9765 47.1072 37.9999 45.8276 37.9999Z" fill="#fff"/>
<path d="M80.8021 37.9999H62.0825C60.7555 37.9999 59.7129 37.021 59.7129 35.7751V2.22482C59.7129 0.97892 60.7555 0 62.0825 0H80.8021C82.1291 0 83.1717 0.97892 83.1717 2.22482C83.1717 3.47072 82.1291 4.44964 80.8021 4.44964H64.452V33.5503H80.8021C82.1291 33.5503 83.1717 34.5292 83.1717 35.7751C83.1717 37.021 82.0817 37.9999 80.8021 37.9999Z" fill="#fff"/>
<path d="M114.829 37.9999H96.1098C94.7828 37.9999 93.7402 37.021 93.7402 35.7751V2.22482C93.7402 0.97892 94.7828 0 96.1098 0C97.4368 0 98.4794 0.97892 98.4794 2.22482V33.5503H114.829C116.156 33.5503 117.199 34.5292 117.199 35.7751C117.199 37.021 116.156 37.9999 114.829 37.9999Z" fill="#fff"/>
<path d="M76.3473 21.2248H62.0351C60.7555 21.2248 59.7129 20.2459 59.7129 19C59.7129 17.7541 60.7555 16.7751 62.0351 16.7751H76.3473C77.6269 16.7751 78.6695 17.7541 78.6695 19C78.6695 20.2459 77.6269 21.2248 76.3473 21.2248Z" fill="#fff"/>
<path d="M29.9995 11.658C28.6725 11.658 27.6299 10.6791 27.6299 9.43323V2.22482C27.6299 0.97892 28.6725 0 29.9995 0C31.3264 0 32.369 0.97892 32.369 2.22482V9.43323C32.369 10.6791 31.3264 11.658 29.9995 11.658Z" fill="#fff"/>
</svg>
