<svg width="192" height="191" viewBox="0 0 192 191" fill="none" xmlns="http://www.w3.org/2000/svg">
<path d="M171.79 78.8857C174.176 81.5512 176.407 84.3461 178.508 87.2187C180.583 90.0654 182.554 93.0156 184.422 96.0175C186.03 98.6054 187.793 101.193 188.52 104.195C190.024 110.303 188.312 116.954 186.159 122.699C183.903 128.728 180.842 134.706 176.848 139.805C172.413 145.472 166.888 150.13 161.856 155.254C159.288 157.868 156.694 160.508 154.568 163.51C153.556 164.933 152.674 166.486 152.103 168.142C151.507 169.85 151.273 171.687 151.144 173.499C150.91 177.251 151.299 181.056 150.417 184.756C150.262 185.377 151.247 185.662 151.377 185.015C152.285 181.237 151.948 177.329 152.207 173.499C152.337 171.532 152.648 169.591 153.452 167.78C154.178 166.123 155.216 164.597 156.357 163.173C160.948 157.428 166.706 152.718 171.894 147.517C174.487 144.929 176.952 142.211 179.104 139.261C181.024 136.622 182.658 133.801 184.136 130.902C187.093 125.105 189.557 118.843 190.335 112.321C190.698 109.319 190.647 106.188 189.817 103.264C188.961 100.236 187.119 97.5444 185.459 94.8789C181.594 88.6938 177.315 82.7417 172.387 77.3588C168.34 72.9335 163.775 68.6894 158.406 65.9204C154.334 63.7983 149.873 62.4008 145.386 61.4951C137.163 59.8388 128.267 59.6577 120.045 61.6762C119.241 59.1918 118.488 56.7075 117.918 54.1455C117.01 50.2119 116.439 46.2265 116.31 42.1894C116.232 39.7309 116.362 37.2983 116.803 34.8916C118.852 34.5293 120.875 34.0893 122.872 33.5717C126.866 32.5625 130.783 31.2944 134.622 29.7934C137.864 28.5254 141.132 27.1796 144.037 25.2129C146.423 23.6084 148.835 21.4604 149.795 18.6655C150.236 17.3457 150.366 15.8706 150.028 14.499C149.691 13.1792 148.783 12.0146 147.746 11.1606C146.605 10.2031 145.23 9.50436 143.803 9.11618C142.351 8.72799 141.002 8.80563 139.55 9.06442C136.463 9.60788 133.428 10.7465 130.731 12.3252C125.18 15.6118 120.797 20.7617 118.073 26.5586C116.984 28.8877 116.154 31.3203 115.635 33.8305C111.408 34.5551 107.128 34.9951 102.822 35.2021C97.9719 35.435 93.1216 35.3056 88.2972 35.0468C87.8822 33.1577 87.4931 31.2685 87.1041 29.4052C86.2222 25.2129 85.3144 21.0205 83.9138 16.9575C82.6688 13.3344 81.0347 9.76315 78.4669 6.89059C75.9509 4.06979 72.605 2.23239 68.87 1.71481C66.5616 1.37839 64.2791 1.53366 61.9706 1.81833C59.1175 2.18063 56.2644 2.56881 53.4372 2.98288C41.9209 4.71676 30.1194 7.27877 20.0556 13.4121C15.0238 16.4917 10.5884 20.4511 7.1647 25.2646C3.24814 30.7251 1.32876 37.1689 1.40657 43.8974C1.48438 50.7036 3.37782 57.4062 5.94563 63.6689C7.24251 66.852 8.69501 69.9834 10.4069 72.9853C12.2225 76.1684 14.3494 79.1445 16.6319 82.017C18.9403 84.9155 21.3784 87.6845 23.8425 90.4277C26.125 93.0156 28.1741 95.6811 29.7044 98.7866C32.5316 104.506 33.5431 110.846 34.2175 117.109C34.5547 120.37 34.8659 123.656 35.1513 126.917C35.2291 127.771 36.5778 127.771 36.5 126.917C35.9294 120.395 35.6959 113.848 34.2694 107.43C32.8688 101.219 30.2491 95.4223 26.0472 90.6088C21.2488 85.1225 16.2688 79.7397 12.4819 73.477C10.6922 70.5009 9.16189 67.3437 7.81314 64.1347C6.46439 61.0034 5.32314 57.7685 4.4672 54.456C2.83314 48.1416 2.28845 41.3872 4.07814 35.0468C5.79001 29.0171 9.62876 23.8154 14.2456 19.6489C22.8828 11.8593 34.3472 8.15866 45.5522 5.93307C51.1806 4.82028 56.835 4.04391 62.5153 3.29342C66.5356 2.77584 70.6338 3.03463 74.1612 5.18258C77.2219 7.04586 79.3487 10.0737 80.905 13.2568C82.6687 16.9057 83.7581 20.8393 84.7178 24.7729C85.5219 28.1889 86.1963 31.6308 86.9225 35.0468C83.9137 34.8657 80.9309 34.6845 77.9222 34.5034C75.6916 34.374 73.4609 34.2187 71.2562 34.0634C69.1294 33.9082 67.0025 33.6753 64.8756 33.5976C62.7488 33.52 60.5959 33.6494 58.4691 33.4941C56.4978 33.3388 54.6044 32.8213 52.7888 32.1225C51.0769 31.4755 49.4428 30.6733 47.705 30.0263C46.9528 29.7417 46.6156 30.958 47.3678 31.2426C49.1834 31.8896 50.9731 32.7177 52.7628 33.4165C54.6822 34.167 56.6534 34.6328 58.7284 34.7622C60.8553 34.9174 63.0081 34.7622 65.135 34.8398C67.3916 34.9174 69.6741 35.1762 71.9306 35.3056C76.4697 35.6162 81.0088 35.8491 85.5737 36.082C86.1184 36.1079 86.6372 36.1338 87.1819 36.1596C87.2597 36.4961 87.3116 36.8325 87.3894 37.1689C88.1934 40.792 89.1012 44.4409 90.7094 47.8051C92.1878 50.8847 94.4963 53.4726 96.1822 56.4487C96.9603 57.8203 97.5828 59.2954 97.8941 60.8481C98.0756 61.7797 98.0756 62.789 97.6347 63.6689C97.1937 64.5229 96.3897 65.1699 95.6116 65.7133C94.4703 66.5156 93.2513 67.1884 92.0581 67.9389C89.4903 69.5434 86.9744 71.4326 85.3144 73.9946C83.4209 76.8671 83.1097 80.2573 83.0059 83.5957C82.9541 85.2519 82.9022 86.934 82.5391 88.5385C82.1241 90.2983 81.2941 91.7734 80.2825 93.2485C78.5447 95.7846 76.4438 98.5537 73.5647 99.8994C70.8413 101.193 67.4953 101.245 64.5384 101.271C61.4778 101.297 58.3913 101.245 55.3306 101.219C52.6591 101.193 49.78 100.753 47.2122 101.789C44.7481 102.798 43.4772 105.049 42.7769 107.482C42.0247 110.147 41.8431 112.994 41.7653 115.763C41.7134 118.17 41.7913 120.577 41.7913 122.983C41.7913 123.579 42.725 123.579 42.725 122.983C42.725 120.395 42.6731 117.808 42.8028 115.194C42.9325 112.451 43.1659 109.604 44.0997 106.99C44.5147 105.826 45.0853 104.713 45.9931 103.885C47.0306 102.953 48.4053 102.565 49.78 102.436C51.2066 102.306 52.6331 102.41 54.0338 102.487C55.4344 102.565 56.8609 102.539 58.2616 102.591C61.5556 102.694 64.8497 102.85 68.1437 102.591C71.1784 102.332 74.0834 101.711 76.4956 99.7958C77.7925 98.7607 78.9078 97.5444 79.9194 96.2505C80.9309 94.9565 81.9684 93.5849 82.7466 92.1357C84.4066 89.0561 84.3806 85.6918 84.5362 82.3017C84.6919 78.8339 85.5478 75.5991 87.96 73.0112C90.0869 70.7338 92.8103 69.2588 95.4041 67.6025C97.1419 66.4897 99.0353 65.1181 99.3984 62.9443C99.8653 60.1753 98.4128 57.1474 96.9862 54.8701C95.2484 52.0234 93.0437 49.4873 91.6691 46.4336C90.9428 44.8291 90.3981 43.1469 89.9053 41.4389C89.4125 39.705 88.9975 37.9453 88.5825 36.1855C91.8766 36.3667 95.1447 36.5219 98.4647 36.5219C104.145 36.5219 109.825 36.0561 115.428 35.0986C115.402 35.2539 115.35 35.4091 115.324 35.5644C114.753 39.291 114.909 43.0952 115.324 46.8217C115.895 51.9975 117.114 57.0439 118.696 61.9868C117.762 62.2456 116.828 62.5302 115.921 62.8408C111.589 64.3676 107.491 66.645 104.249 69.9057C100.488 73.684 98.4647 78.4716 97.4531 83.6474C96.0266 91.0747 96.5194 98.7607 94.7816 106.136C94.3666 107.922 93.7959 109.682 93.0437 111.364C92.3694 112.865 91.4356 114.21 90.4759 115.53C88.5825 118.118 86.3519 120.784 85.885 124.044C85.5738 126.218 85.885 128.625 87.8822 129.919C89.5422 130.98 91.695 131.058 93.5884 131.316C95.4559 131.575 97.5309 131.912 98.8019 133.413C100.332 135.198 100.877 137.786 101.318 140.038C101.863 142.729 102.122 145.446 102.433 148.164C102.692 150.622 103.004 153.081 103.756 155.436C104.508 157.739 105.675 159.938 107.465 161.595C109.281 163.251 111.563 164.26 113.923 164.855C117.529 165.787 121.29 165.891 124.999 166.046C129.149 166.201 133.221 166.538 137.293 167.34C138.798 167.624 140.276 168.064 141.262 169.358C141.988 170.316 142.507 171.429 142.896 172.567C143.855 175.285 144.296 178.209 144.556 181.081C144.789 183.618 144.945 186.18 144.867 188.716C144.841 189.518 146.112 189.518 146.138 188.716C146.345 183.281 146.216 177.588 144.452 172.386C143.57 169.824 142.273 167.366 139.602 166.382C137.942 165.787 136.126 165.606 134.388 165.295C132.313 164.933 130.238 164.752 128.137 164.648C124.169 164.441 120.123 164.493 116.206 163.794C113.768 163.354 111.304 162.63 109.281 161.129C105.39 158.23 104.482 153.106 103.963 148.578C103.652 145.86 103.393 143.143 102.926 140.452C102.485 138.045 101.914 135.509 100.618 133.387C99.5022 131.575 97.8162 130.592 95.7672 130.126C93.7959 129.686 91.7209 129.712 89.8016 129.117C89.1012 128.91 88.375 128.547 87.9341 127.952C87.3116 127.15 87.2338 126.089 87.2856 125.105C87.4153 121.896 89.5681 119.231 91.3838 116.747C92.3175 115.478 93.2513 114.21 93.9775 112.813C94.8075 111.157 95.4559 109.371 95.9228 107.585C96.8825 104.04 97.2716 100.365 97.5569 96.7163C98.1016 90.0136 98.1275 82.7675 101.188 76.6084C103.133 72.7006 106.246 69.5434 109.929 67.2402C112.782 65.4804 115.869 64.2124 119.111 63.3325C119.941 65.791 120.823 68.2236 121.783 70.6303C123.365 74.5898 124.973 78.5752 126.711 82.4829C127.567 84.3979 128.448 86.3129 129.486 88.1503C130.42 89.8066 131.509 91.3593 132.443 93.0156C132.754 93.5332 133.013 94.0507 133.273 94.5942C132.78 94.2319 132.261 93.9213 131.665 93.6884C129.797 92.9379 127.67 92.8862 125.699 93.0932C124.973 93.1709 124.947 94.2319 125.699 94.2319C127.463 94.2319 129.278 94.3354 130.938 94.9565C132.572 95.5776 133.792 96.8198 134.44 98.4243C134.544 98.7089 134.777 98.916 135.037 98.9677C135.166 99.0971 135.348 99.2006 135.555 99.2006C135.918 99.2006 136.359 98.8642 136.308 98.4502C136.1 96.768 135.763 95.1376 135.633 93.4555C135.503 91.7475 135.555 90.0395 135.918 88.3574C136.1 87.4775 134.751 87.0893 134.57 87.9951C134.207 89.7548 134.181 91.4887 134.284 93.2226C133.325 91.437 132.158 89.7548 131.146 88.0468C129.045 84.5014 127.489 80.6455 125.933 76.8671C124.013 72.2866 122.12 67.706 120.512 62.9961C126.166 61.6503 132.132 61.4174 137.812 61.8574C142.533 62.2456 147.253 63.1513 151.74 64.6523C156.202 66.1533 160.274 68.3271 163.931 71.3032C166.577 73.4511 169.041 75.832 171.349 78.3422C171.219 78.3681 171.946 78.7822 171.79 78.8857ZM117.321 32.7177C118.929 26.7397 122.327 21.2275 126.892 17.061C129.149 14.9907 131.717 13.2568 134.518 12.0146C135.893 11.3935 137.319 10.9536 138.798 10.6172C140.198 10.3066 141.625 10.0478 143.051 10.3584C145.619 10.8759 148.732 12.6098 149.121 15.4306C149.536 18.3291 147.746 20.917 145.671 22.7285C143.363 24.747 140.561 26.1186 137.786 27.3349C134.077 28.9653 130.264 30.3369 126.373 31.4755C123.339 32.3554 120.252 33.08 117.14 33.6494C117.166 33.313 117.217 33.0024 117.321 32.7177Z" fill="#1DA1F2" stroke="#1DA1F2" stroke-width="2" stroke-miterlimit="10"/>
</svg>
