<svg width="32" height="30" viewBox="0 0 32 30" fill="none" xmlns="http://www.w3.org/2000/svg">
<path d="M17.2777 7.97356L20.7457 8.35889C21.6754 8.46219 22.3924 9.19955 22.2947 10.1299C22.0507 12.4555 20.9013 17.0412 15.9719 21.9706C11.0426 26.8999 6.45629 28.05 4.13019 28.2945C3.19972 28.3923 2.46212 27.6752 2.3588 26.7453L1.97351 23.2778C1.88544 22.4851 2.27671 21.7159 2.96921 21.3203L5.45331 19.9012C6.23635 19.4539 7.22191 19.5859 7.85959 20.2236L8.49687 20.8609C8.96972 21.3337 9.65114 21.5338 10.2555 21.2475C10.9715 20.9083 12.0065 20.2792 13.1428 19.1429C14.2792 18.0065 14.9083 16.9716 15.2475 16.2555C15.5338 15.6512 15.3337 14.9698 14.8608 14.4969L14.2236 13.8596C13.5859 13.222 13.4538 12.2364 13.9012 11.4534L15.3202 8.96926C15.7158 8.27676 16.4851 7.88549 17.2777 7.97356Z" stroke="#1DA1F2" stroke-width="2" stroke-linecap="round" stroke-linejoin="round"/>
<circle cx="25.5" cy="6.5" r="5.5" fill="#00966D" stroke="#FCFCFC" stroke-width="2"/>
</svg>
