<svg width="132" height="156" viewBox="0 0 132 156" fill="none" xmlns="http://www.w3.org/2000/svg">
<path d="M18.3689 78.6531C24.2299 77.1406 31.0018 78.0172 36.8455 79.1344C43.5486 80.4062 49.9596 82.3828 55.8549 84.8063C61.3377 87.0578 66.0643 89.9281 71.1002 92.575C75.8611 95.0844 80.9486 97.3188 86.8611 98.436C92.533 99.5016 98.3939 100.292 104.306 100.309C110.064 100.327 116.011 99.5531 120.686 97.2328C124.571 95.3078 127.183 92.3688 128.902 89.4297C130.638 86.4219 131.669 82.8297 130.105 79.6844C128.558 76.5734 124.158 74.5453 119.5 73.7203C114.224 72.775 108.603 73.0844 103.241 73.4625C100.628 73.6516 98.0158 73.875 95.4033 74.0297C91.8799 74.2188 88.3221 74.3219 84.7986 74.4938C77.0471 74.8719 69.2268 75.2844 61.4752 74.6141C56.1986 74.1672 51.0768 73.0844 46.0752 71.9328C37.7221 70.0078 28.8361 67.5328 22.6143 63.2531C19.8471 61.3625 17.733 59.0078 17.2861 56.3609C16.7705 53.25 18.5408 50.2078 21.0158 47.5953C23.8689 44.5875 27.8908 42.1469 33.1502 41.15C37.9111 40.2563 42.9986 40.5656 47.7252 41.3906C57.3846 43.075 66.2705 46.7016 74.1424 50.6719C79.1955 53.2156 83.3893 56.4297 87.9783 59.3172C91.9143 61.775 96.4346 64.4906 101.849 65.35C106.438 66.0891 111.474 65.7109 115.753 64.4219C120.394 63.0297 123.574 60.5375 124.674 57.2547C125.756 54.0234 124.33 50.9297 120.841 48.575C117.128 46.0656 112.23 44.725 107.486 43.2984C100.68 41.2703 94.3721 38.5375 88.4939 35.5297C83.3033 32.8656 78.0439 30.0297 74.7439 26.2141C71.7533 22.7594 70.6705 17.8609 75.6377 14.8875C79.1268 12.7906 84.4549 13.2203 88.4252 14.4234C92.3783 15.6094 96.2283 17.775 97.3283 20.6453C97.4658 20.9891 98.1533 20.9375 98.3252 20.6453C100.646 16.4516 100.336 11.9141 96.0564 8.32188C92.1377 5.02188 86.0189 3.04532 79.9346 2.06563C66.3393 -0.117182 50.9393 2.80469 42.4314 10.2984C37.4471 14.6813 34.8861 20.0609 32.9783 25.3203C32.8236 25.75 33.8205 25.9219 33.9752 25.5094C35.608 20.9719 37.7393 16.4 41.5033 12.3953C45.1127 8.57969 50.2861 5.58907 56.6283 3.88751C62.9189 2.20313 69.8627 1.60157 76.583 2.32344C82.6846 2.97657 88.8893 4.54063 93.3752 7.41094C95.7643 8.94063 97.5689 10.8484 98.3424 12.9969C99.1158 15.1625 98.7549 17.3797 97.7924 19.4938C96.3314 17.1219 93.1346 15.2656 89.7486 14.1141C86.0018 12.8422 81.2408 12.1719 77.2533 13.375C72.3549 14.8531 70.4814 18.8406 71.3064 22.1234C72.2861 26.0938 76.4799 29.5828 80.8455 32.2297C86.1393 35.4438 92.0346 38.3313 98.1705 40.8063C101.35 42.0781 104.633 43.2469 108.053 44.2266C110.511 44.9313 112.952 45.6703 115.238 46.5813C119.655 48.3688 123.711 50.9984 123.986 54.6078C124.261 58.3203 121.356 61.6719 116.458 63.4422C112.058 65.0234 106.472 65.5047 101.625 64.6281C95.8502 63.5797 91.1236 60.4344 86.9814 57.7531C82.6158 54.9172 78.4393 51.9609 73.5064 49.5375C69.5018 47.5781 65.308 45.7734 60.9252 44.2266C52.4518 41.2531 41.8643 38.6063 32.2564 40.6516C27.3064 41.7 23.4049 43.9859 20.5861 46.8219C18.008 49.4172 16.0486 52.425 16.1861 55.5703C16.4439 61.2078 23.3877 65.2984 30.2455 67.9797C34.1986 69.5266 38.4268 70.7813 42.7236 71.8469C47.0205 72.9297 51.4549 73.9094 55.9408 74.6313C63.5033 75.8344 71.3408 75.7656 79.0752 75.4563C85.9158 75.1641 92.808 74.9578 99.5971 74.4422C105.2 74.0125 110.958 73.4625 116.595 74.0297C121.786 74.5453 127.286 76.3328 129.074 79.8047C130.827 83.2078 129.4 87.1266 127.269 90.3063C125.052 93.5719 121.769 96.4422 116.785 98.0234C111.199 99.7938 104.685 99.8797 98.6518 99.3813C92.5502 98.8828 86.0705 97.9547 80.6221 96.0297C74.8299 93.9844 69.9314 91.0281 64.8783 88.2953C59.8424 85.5797 54.4627 83.2422 48.5674 81.3859C42.3627 79.4266 35.7283 77.8969 28.8705 77.3641C25.983 77.1406 23.0611 77.0891 20.2252 77.5531C17.6986 77.9828 15.3096 78.7563 13.2127 79.7703C4.73926 83.8781 0.029878 91.5953 2.43613 98.3844C4.84238 105.225 14.6564 108.336 24.1096 110.02C36.8455 112.289 50.2518 113.578 63.4346 113.716C76.9096 113.853 90.6424 112.616 103 108.92C106.042 108.009 108.964 106.944 111.955 105.964C114.945 104.967 117.919 103.97 120.738 102.767C121.494 104.228 121.546 105.809 121.374 107.339C121.15 109.419 120.497 111.464 119.758 113.475C118.314 117.428 116.269 121.313 115.066 125.317C114.241 128.067 113.931 130.869 113.072 133.619C112.608 135.097 112.075 136.592 111.181 138.002C110.717 138.741 109.892 140.081 108.466 140.202C106.575 140.373 105.114 138.431 104.564 137.555C103.413 135.698 103.12 133.636 102.914 131.659C102.502 127.638 102.863 123.495 100.044 119.783C99.0814 118.511 97.5861 117.05 95.283 116.827C93.4439 116.638 91.7596 117.359 90.5049 118.184C86.7752 120.608 85.4518 124.011 83.9908 127.208C82.4611 130.577 80.3471 133.877 77.683 136.919C75.5861 139.325 72.8533 142.23 68.8658 143.45C64.7236 144.722 61.7674 142.298 60.1346 140.064C58.0549 137.228 57.2299 134.22 56.4564 131.161C55.7174 128.153 54.9268 125.111 53.3455 122.241C52.383 120.505 50.6299 117.686 47.1752 117.789C43.5486 117.875 42.6549 121.02 41.9846 122.842C40.7643 126.177 40.1799 129.58 39.3033 132.948C38.5814 135.75 37.1721 138.397 35.0752 140.889C33.958 142.213 32.1877 144.172 29.5924 144.275C26.9799 144.378 25.8283 142.694 25.3299 141.284C24.7627 139.669 24.7455 138.002 24.7111 136.352C24.6596 134.478 24.5221 132.588 24.3502 130.714C23.9721 126.177 23.3018 121.502 20.7408 117.239C19.5893 115.297 18.0252 113.492 15.9455 111.928C15.8252 111.842 15.6018 111.808 15.4471 111.842C12.7143 112.444 11.7346 114.334 11.3736 116.053C10.858 118.545 11.3221 121.106 11.8721 123.581C12.4393 126.073 13.2471 128.548 14.0893 131.006C14.8627 133.344 15.3439 135.681 15.9283 138.036C16.6158 140.803 17.5611 143.691 20.0877 146.011C22.9408 148.658 27.3236 150.033 31.8783 151.047C37.6361 152.319 43.6689 153.023 49.6674 153.556C55.7518 154.072 61.9049 154.398 68.0408 154.57C82.9939 154.966 98.2736 154.02 112.436 150.686C113.055 150.531 112.797 149.878 112.161 150.033C99.9236 152.903 86.8611 153.986 73.9189 153.969C67.9549 153.969 61.9736 153.711 56.0268 153.35C50.0283 152.972 44.0471 152.456 38.1861 151.528C33.1502 150.738 27.5643 149.775 23.5424 147.523C20.2939 145.702 18.6268 143.158 17.6814 140.477C16.7705 137.881 16.4611 135.234 15.6533 132.622C15.0174 130.559 14.2611 128.497 13.6596 126.417C12.8346 123.633 12.1299 120.78 12.1986 117.927C12.2502 116.156 12.5252 113.406 15.4127 112.598C20.0361 116.191 21.7893 120.986 22.6314 125.575C23.3877 129.597 23.508 133.653 23.6799 137.692C23.783 140.116 24.0408 144.722 29.0252 144.963C31.4143 145.083 33.2533 143.88 34.5424 142.694C36.158 141.233 37.2752 139.548 38.2721 137.881C39.8361 135.303 40.3861 132.639 41.0393 129.906C41.7955 126.692 42.3111 123.186 44.2877 120.161C44.8721 119.267 45.6455 118.477 47.2611 118.459C48.8424 118.459 49.9768 119.37 50.7158 120.178C53.0705 122.722 53.9299 125.919 54.7377 128.789C55.4768 131.402 55.8721 134.066 57.0236 136.627C58.2268 139.308 60.2549 143.519 64.9814 144.378C68.5393 145.031 71.8221 143.158 73.9877 141.542C77.4424 138.964 79.9346 135.819 81.9799 132.673C83.0111 131.092 83.9393 129.477 84.7127 127.844C85.5033 126.159 86.0877 124.441 87.1533 122.825C88.4596 120.848 92.5846 115.727 96.8299 118.081C99.133 119.353 100.319 121.673 100.869 123.547C101.453 125.558 101.505 127.638 101.642 129.683C101.797 131.763 101.952 133.894 102.656 135.939C103.189 137.486 104.117 139.136 105.956 140.236C112.385 144.017 114.808 130.92 115.203 128.978C115.478 127.655 115.702 126.348 116.114 125.042C116.733 123.117 117.558 121.227 118.366 119.336C120.085 115.28 122.027 111.138 122.336 106.927C122.456 105.345 122.319 103.695 121.391 102.2C121.271 102.011 120.944 101.856 120.635 101.994C117.678 103.283 114.499 104.348 111.319 105.397C108.225 106.428 105.183 107.528 102.021 108.456C95.8674 110.261 89.3189 111.464 82.6846 112.169C69.1924 113.63 55.2877 113.183 41.8299 111.773C35.6424 111.138 29.4377 110.33 23.4049 109.213C18.5236 108.302 13.5564 107.081 9.63769 104.916C1.00956 100.172 1.233 91.9219 6.40644 85.8719C9.15644 82.7609 13.2127 79.9766 18.3689 78.6531Z" fill="#1DA1F2" stroke="#1DA1F2" stroke-width="2" stroke-miterlimit="10"/>
</svg>
